{
  "accessors": [
    {
      "bufferView": 2,
      "componentType": 5126,
      "count": 197,
      "max": [
        5.467229843139648,
        14.46327018737793,
        6.964441776275635
      ],
      "min": [
        -5.3285112380981445,
        0.0,
        -6.926612854003906
      ],
      "type": "VEC3"
    },
    {
      "bufferView": 2,
      "byteOffset": 2364,
      "componentType": 5126,
      "count": 197,
      "max": [
        0.9975941181182861,
        0.9752214550971985,
        0.9988964200019836
      ],
      "min": [
        -0.9935691356658936,
        -0.9998344779014587,
        -0.9772066473960876
      ],
      "type": "VEC3"
    },
    {
      "bufferView": 1,
      "componentType": 5126,
      "count": 197,
      "max": [
        0.992560088634491,
        0.4331899881362915
      ],
      "min": [
        0.518510103225708,
        0.00865000020712614
      ],
      "type": "VEC2"
    },
    {
      "bufferView": 0,
      "componentType": 5125,
      "count": 750,
      "type": "SCALAR"
    },
    {
      "bufferView": 2,
      "byteOffset": 4728,
      "componentType": 5126,
      "count": 216,
      "max": [
        8.943048477172852,
        16.49172019958496,
        8.367547988891602
      ],
      "min": [
        -8.804330825805664,
        0.0,
        -8.329717636108398
      ],
      "type": "VEC3"
    },
    {
      "bufferView": 2,
      "byteOffset": 7320,
      "componentType": 5126,
      "count": 216,
      "max": [
        0.9930329322814941,
        0.9998805522918701,
        0.9947460293769836
      ],
      "min": [
        -0.9809530973434448,
        -0.9776805639266968,
        -0.9997297525405884
      ],
      "type": "VEC3"
    },
    {
      "bufferView": 1,
      "byteOffset": 1576,
      "componentType": 5126,
      "count": 216,
      "max": [
        0.9987800121307373,
        0.9986500144004822
      ],
      "min": [
        0.4515399932861328,
        0.43595001101493835
      ],
      "type": "VEC2"
    },
    {
      "bufferView": 0,
      "byteOffset": 3000,
      "componentType": 5125,
      "count": 744,
      "type": "SCALAR"
    },
    {
      "bufferView": 2,
      "byteOffset": 9912,
      "componentType": 5126,
      "count": 494,
      "max": [
        6.684813976287842,
        12.386320114135742,
        6.5156450271606445
      ],
      "min": [
        -6.915780067443848,
        0.0,
        -6.477817058563232
      ],
      "type": "VEC3"
    },
    {
      "bufferView": 2,
      "byteOffset": 15840,
      "componentType": 5126,
      "count": 494,
      "max": [
        0.9833031296730042,
        0.9964451789855957,
        0.9985803961753845
      ],
      "min": [
        -0.9970387816429138,
        -0.9999973773956299,
        -0.9988449215888977
      ],
      "type": "VEC3"
    },
    {
      "bufferView": 1,
      "byteOffset": 3304,
      "componentType": 5126,
      "count": 494,
      "max": [
        0.4766700863838196,
        0.7555100917816162
      ],
      "min": [
        0.006220000796020031,
        0.3519101142883301
      ],
      "type": "VEC2"
    },
    {
      "bufferView": 0,
      "byteOffset": 5976,
      "componentType": 5125,
      "count": 1797,
      "type": "SCALAR"
    },
    {
      "bufferView": 2,
      "byteOffset": 21768,
      "componentType": 5126,
      "count": 244,
      "max": [
        4.949132919311523,
        10.384960174560547,
        5.923941135406494
      ],
      "min": [
        -4.933640003204346,
        0.0,
        -5.886113166809082
      ],
      "type": "VEC3"
    },
    {
      "bufferView": 2,
      "byteOffset": 24696,
      "componentType": 5126,
      "count": 244,
      "max": [
        0.989128828048706,
        0.9869801998138428,
        0.9769480228424072
      ],
      "min": [
        -0.9895156621932983,
        -0.9988976716995239,
        -0.9931520223617554
      ],
      "type": "VEC3"
    },
    {
      "bufferView": 1,
      "byteOffset": 7256,
      "componentType": 5126,
      "count": 244,
      "max": [
        0.47991010546684265,
        0.9960600137710571
      ],
      "min": [
        0.012090000323951244,
        0.7476900219917297
      ],
      "type": "VEC2"
    },
    {
      "bufferView": 0,
      "byteOffset": 13164,
      "componentType": 5125,
      "count": 900,
      "type": "SCALAR"
    },
    {
      "bufferView": 2,
      "byteOffset": 27624,
      "componentType": 5126,
      "count": 563,
      "max": [
        5.542219161987305,
        7.31576681137085,
        5.599063873291016
      ],
      "min": [
        -5.526730060577393,
        0.0,
        -5.561234951019287
      ],
      "type": "VEC3"
    },
    {
      "bufferView": 2,
      "byteOffset": 34380,
      "componentType": 5126,
      "count": 563,
      "max": [
        0.9847756624221802,
        0.999286413192749,
        0.9989363551139832
      ],
      "min": [
        -0.9987196326255798,
        -0.9938152432441711,
        -0.9962815642356873
      ],
      "type": "VEC3"
    },
    {
      "bufferView": 1,
      "byteOffset": 9208,
      "componentType": 5126,
      "count": 563,
      "max": [
        0.5424200892448425,
        0.34731000661849976
      ],
      "min": [
        0.009580000303685665,
        0.005030001047998667
      ],
      "type": "VEC2"
    },
    {
      "bufferView": 0,
      "byteOffset": 16764,
      "componentType": 5125,
      "count": 1800,
      "type": "SCALAR"
    }
  ],
  "asset": {
    "extras": {
      "author": "yankobe (https://sketchfab.com/yankobe.do)",
      "license": "CC-BY-4.0 (http://creativecommons.org/licenses/by/4.0/)",
      "source": "https://sketchfab.com/3d-models/crystal-cluster-pack-8fc46d0cba71423ba9d48ad99a91be90",
      "title": "Crystal Cluster Pack"
    },
    "generator": "Sketchfab-15.71.0",
    "version": "2.0"
  },
  "bufferViews": [
    {
      "buffer": 0,
      "byteLength": 23964,
      "name": "floatBufferViews",
      "target": 34963
    },
    {
      "buffer": 0,
      "byteLength": 13712,
      "byteOffset": 23964,
      "byteStride": 8,
      "name": "floatBufferViews",
      "target": 34962
    },
    {
      "buffer": 0,
      "byteLength": 41136,
      "byteOffset": 37676,
      "byteStride": 12,
      "name": "floatBufferViews",
      "target": 34962
    }
  ],
  "buffers": [
    {
      "byteLength": 78812,
      "uri": "scene.bin"
    }
  ],
  "extensionsUsed": [
    "KHR_materials_specular"
  ],
  "images": [
    {
      "uri": "textures/Cluster_baseColor.jpeg"
    }
  ],
  "materials": [
    {
      "doubleSided": true,
      "extensions": {
        "KHR_materials_specular": {
          "specularColorFactor": [
            1.0,
            1.0,
            1.0
          ],
          "specularFactor": 1.0
        }
      },
      "name": "Cluster",
      "pbrMetallicRoughness": {
        "baseColorTexture": {
          "index": 0
        },
        "metallicFactor": 0.11428606258609549,
        "roughnessFactor": 0.042294850537622566
      }
    },
    {
      "doubleSided": true,
      "extensions": {
        "KHR_materials_specular": {
          "specularColorFactor": [
            1.0,
            1.0,
            1.0
          ],
          "specularFactor": 1.0
        }
      },
      "name": "Cluster_0",
      "pbrMetallicRoughness": {
        "baseColorTexture": {
          "index": 0
        },
        "metallicFactor": 0.0,
        "roughnessFactor": 0.042294850537622566
      }
    },
    {
      "doubleSided": true,
      "extensions": {
        "KHR_materials_specular": {
          "specularColorFactor": [
            1.0,
            1.0,
            1.0
          ],
          "specularFactor": 1.0
        }
      },
      "name": "Cluster_1",
      "pbrMetallicRoughness": {
        "baseColorTexture": {
          "index": 0
        },
        "metallicFactor": 0.0,
        "roughnessFactor": 0.042294850537622566
      }
    },
    {
      "doubleSided": true,
      "extensions": {
        "KHR_materials_specular": {
          "specularColorFactor": [
            1.0,
            1.0,
            1.0
          ],
          "specularFactor": 1.0
        }
      },
      "name": "Cluster_2",
      "pbrMetallicRoughness": {
        "baseColorTexture": {
          "index": 0
        },
        "metallicFactor": 0.0,
        "roughnessFactor": 0.042294850537622566
      }
    },
    {
      "doubleSided": true,
      "extensions": {
        "KHR_materials_specular": {
          "specularColorFactor": [
            1.0,
            1.0,
            1.0
          ],
          "specularFactor": 1.0
        }
      },
      "name": "Cluster_3",
      "pbrMetallicRoughness": {
        "baseColorTexture": {
          "index": 0
        },
        "metallicFactor": 0.0,
        "roughnessFactor": 0.042294850537622566
      }
    }
  ],
  "meshes": [
    {
      "name": "Cluster1.Shape_Cluster_0",
      "primitives": [
        {
          "attributes": {
            "NORMAL": 1,
            "POSITION": 0,
            "TEXCOORD_0": 2
          },
          "indices": 3,
          "material": 0,
          "mode": 4
        }
      ]
    },
    {
      "name": "Cluster2.Shape_Cluster_0",
      "primitives": [
        {
          "attributes": {
            "NORMAL": 5,
            "POSITION": 4,
            "TEXCOORD_0": 6
          },
          "indices": 7,
          "material": 1,
          "mode": 4
        }
      ]
    },
    {
      "name": "Cluster3.Shape_Cluster_0",
      "primitives": [
        {
          "attributes": {
            "NORMAL": 9,
            "POSITION": 8,
            "TEXCOORD_0": 10
          },
          "indices": 11,
          "material": 2,
          "mode": 4
        }
      ]
    },
    {
      "name": "Cluster4.Shape_Cluster_0",
      "primitives": [
        {
          "attributes": {
            "NORMAL": 13,
            "POSITION": 12,
            "TEXCOORD_0": 14
          },
          "indices": 15,
          "material": 3,
          "mode": 4
        }
      ]
    },
    {
      "name": "Cluster5.Shape_Cluster_0",
      "primitives": [
        {
          "attributes": {
            "NORMAL": 17,
            "POSITION": 16,
            "TEXCOORD_0": 18
          },
          "indices": 19,
          "material": 4,
          "mode": 4
        }
      ]
    }
  ],
  "nodes": [
    {
      "children": [
        1
      ],
      "matrix": [
        1.0,
        0.0,
        0.0,
        0.0,
        0.0,
        2.220446049250313e-16,
        -1.0,
        0.0,
        0.0,
        1.0,
        2.220446049250313e-16,
        0.0,
        0.0,
        0.0,
        0.0,
        1.0
      ],
      "name": "Sketchfab_model"
    },
    {
      "children": [
        2
      ],
      "matrix": [
        0.009999999776482582,
        0.0,
        0.0,
        0.0,
        0.0,
        0.0,
        0.009999999776482582,
        0.0,
        0.0,
        -0.009999999776482582,
        0.0,
        0.0,
        0.0,
        0.0,
        0.0,
        1.0
      ],
      "name": "Clusters.fbx"
    },
    {
      "children": [
        3,
        6,
        9,
        12,
        15
      ],
      "name": "RootNode"
    },
    {
      "children": [
        4
      ],
      "name": "Cluster1"
    },
    {
      "children": [
        5
      ],
      "name": "Cluster1.Shape"
    },
    {
      "mesh": 0,
      "name": "Cluster1.Shape_Cluster_0"
    },
    {
      "children": [
        7
      ],
      "matrix": [
        1.0,
        0.0,
        0.0,
        0.0,
        0.0,
        1.0,
        0.0,
        0.0,
        0.0,
        0.0,
        1.0,
        0.0,
        17.385942459106445,
        0.0,
        0.0,
        1.0
      ],
      "name": "Cluster2"
    },
    {
      "children": [
        8
      ],
      "name": "Cluster2.Shape"
    },
    {
      "mesh": 1,
      "name": "Cluster2.Shape_Cluster_0"
    },
    {
      "children": [
        10
      ],
      "matrix": [
        1.0,
        0.0,
        0.0,
        0.0,
        0.0,
        1.0,
        0.0,
        0.0,
        0.0,
        0.0,
        1.0,
        0.0,
        36.19723892211914,
        0.0,
        0.0,
        1.0
      ],
      "name": "Cluster3"
    },
    {
      "children": [
        11
      ],
      "name": "Cluster3.Shape"
    },
    {
      "mesh": 2,
      "name": "Cluster3.Shape_Cluster_0"
    },
    {
      "children": [
        13
      ],
      "matrix": [
        1.0,
        0.0,
        0.0,
        0.0,
        0.0,
        1.0,
        0.0,
        0.0,
        0.0,
        0.0,
        1.0,
        0.0,
        11.859951972961426,
        0.0,
        14.673498153686523,
        1.0
      ],
      "name": "Cluster4"
    },
    {
      "children": [
        14
      ],
      "name": "Cluster4.Shape"
    },
    {
      "mesh": 3,
      "name": "Cluster4.Shape_Cluster_0"
    },
    {
      "children": [
        16
      ],
      "matrix": [
        1.0,
        0.0,
        0.0,
        0.0,
        0.0,
        1.0,
        0.0,
        0.0,
        0.0,
        0.0,
        1.0,
        0.0,
        27.466259002685547,
        0.0,
        12.056309700012207,
        1.0
      ],
      "name": "Cluster5"
    },
    {
      "children": [
        17
      ],
      "name": "Cluster5.Shape"
    },
    {
      "mesh": 4,
      "name": "Cluster5.Shape_Cluster_0"
    }
  ],
  "samplers": [
    {
      "magFilter": 9729,
      "minFilter": 9987,
      "wrapS": 10497,
      "wrapT": 10497
    }
  ],
  "scene": 0,
  "scenes": [
    {
      "name": "Sketchfab_Scene",
      "nodes": [
        0
      ]
    }
  ],
  "textures": [
    {
      "sampler": 0,
      "source": 0
    }
  ]
}
